<?xml version="1.0" encoding="utf-8"?>
<!-- Generator: Adobe Illustrator 26.2.1, SVG Export Plug-In . SVG Version: 6.00 Build 0)  -->
<svg version="1.1" id="Capa_1" xmlns="http://www.w3.org/2000/svg" xmlns:xlink="http://www.w3.org/1999/xlink" x="0px" y="0px"
	 viewBox="0 0 491 137" style="enable-background:new 0 0 491 137;" xml:space="preserve">
<style type="text/css">
	.st0{fill:#3A8DDE;}
	.st1{fill:#1B2949;}
</style>
<g>
	<path class="st0" d="M56.5,63.3L45.6,35.7h11.7l12.9,32.8l18.5-33.1c0.4-0.6,0.7-0.9,1.2-1.4c0.5-0.5,0.8-0.7,1.4-1.1
		c0.4-0.3,0.7-0.4,1.1-0.6c0.4-0.2,0.7-0.3,1.2-0.4c0.5-0.2,0.9-0.2,1.4-0.3c0.6-0.1,0.9-0.2,1.4-0.3c0.7-0.1,1.1-0.2,1.8-0.3
		c0.6-0.1,0.9,0,1.4-0.1c0.5-0.1,0.8-0.1,1.2-0.3c0.4-0.3,0.5-0.6,0.7-1c0.1-0.4,0.1-0.6,0.1-1c0-0.6-0.1-0.9-0.3-1.4
		c-0.2-0.5-0.3-0.7-0.6-1.1c-0.2-0.3-0.3-0.5-0.6-0.8c-0.5-0.6-0.8-0.8-1.4-1.3c-0.4-0.4-0.8-0.6-1.3-1c-0.5-0.4-1.1-0.7-1.5-1
		c-0.8-0.5-2.7-1.5-3.5-1.9c-8.1-3.5-13.8-4.8-22.3-4.9c-2,0-3.5,0.4-4.8,0.3C38.2,18,17,40.7,17,68.5c0,29.4,23.8,53.2,53.2,53.2
		c17,0,32.1-8,41.8-20.4h15c-11.3,19.6-32.6,32.8-56.9,32.8c-36.2,0-65.6-29.4-65.6-65.6c0-36.3,29.4-65.6,65.6-65.6
		c14,0,26.7,4.2,37.4,11.7c0,0,11.1,9.1,10.9,19c0,0.7,0,1.3,0,1.9c-0.1,1.5,0,1.4-0.2,2.6c-0.1,0.8-0.1,1.6-0.3,2.3
		c-0.1,0.6-0.2,1.4-0.4,2.2c-0.2,0.5-0.5,1.3-0.5,1.3l-40.6,70.2L69.7,97c-3.7,4.1-9,6.6-15,6.6c-11.2,0-20.2-9.1-20.2-20.2
		c0-11.2,9-20.2,20.2-20.2C55.3,63.2,55.9,63.2,56.5,63.3 M75,79.9L79,90.3l26.6-46.4l0.1-0.4c0-0.3,0-0.2,0-0.5
		c-0.1-0.3-0.1-0.5-0.3-0.8c-0.1-0.2-0.2-0.4-0.4-0.6c-0.2-0.3-0.4-0.4-0.7-0.6c-0.2-0.1-0.4-0.2-0.7-0.3c-0.5-0.1-0.7,0-1.1,0
		c-0.7,0-1.1,0.1-1.8,0.3c-0.6,0.2-0.9,0.3-1.5,0.6c-0.8,0.4-1.2,0.6-1.9,1.1c-0.7,0.5-1.1,0.8-1.7,1.4c-0.6,0.6-0.9,0.9-1.4,1.6
		L75,79.9z M46,83.4c0,4.8,3.9,8.7,8.7,8.7c4.8,0,8.7-3.9,8.7-8.7c0-4.8-3.9-8.7-8.7-8.7C49.9,74.7,46,78.6,46,83.4"/>
	<path class="st1" d="M169.8,101.9h-7.7l-17.4-48.5c-2.7-7.5-3.1-8-10.8-9.4v-2h17.3l17.4,48.7h0.2l17-48.7h5.8L169.8,101.9z"/>
	<path class="st1" d="M215.5,101.9v-5.2c-3.2,3.9-6,6.2-11.5,6.2c-5.7,0-11.9-4-11.9-10.2c0-11.5,14.7-13.4,23.4-13.7v-4.5
		c0-4.2,0.4-11.8-5.6-11.8c-5.5,0-6.2,4.6-6.2,9.1h-10.6c1.5-9.3,7.8-12.1,16.7-12.1c11.2,0,14.6,4.7,14.6,15.3v27H215.5z
		 M215.5,82.2c-5.8,0.2-13.6,1.6-13.6,9c0,3.3,1.5,6.9,5.3,6.9c5.9,0,8.3-5.7,8.3-10.8V82.2z"/>
	<path class="st1" d="M237.3,101.9V51.8c0-5.5-0.9-7.8-6.8-8.1v-1.8l15.7-2.2v62.2H237.3z"/>
	<path class="st1" d="M285.7,101.9v-5c-3.6,3.6-6.9,6-12.3,6c-12,0-15.9-10.4-15.9-20.8c0-10.3,4-22.5,16.3-22.5
		c5.4,0,9.1,2,11.7,6.7h0.2V51.8c0-5.4-0.8-7.8-6.7-8.1v-1.8l15.6-2.2v62.2H285.7z M285.7,78.6c0-6.2-1.6-14.2-9.4-14.2
		c-8.3,0-9,10.4-9,16.4c0,6.2,0.5,17.3,9.1,17.3c8,0,9.3-9.7,9.3-15.8V78.6z"/>
	<path class="st1" d="M314.7,76.6c0,10.1,4.4,21.5,16.2,21.5c2.7,0,5.9-0.4,8.4-1.5v3.9c-4,1.5-8.3,2.4-12.5,2.4
		c-14.4,0-21.8-9.2-21.8-23.1c0-12.6,5.5-20.2,18.7-20.2c11.4,0,16.4,6.1,16.4,17H314.7z M323.2,62.6c-5.6,0-8.5,5.3-8.5,10.4h16.5
		C331.2,67.9,329.3,62.6,323.2,62.6"/>
	<path class="st1" d="M369.7,71.8c0-4.3-1.2-9.2-6.4-9.2c-7.3,0-7.4,10-7.4,15.1c0,8.9,3.4,20.4,14.1,20.4c2.6,0,6-0.4,8.5-1.2v3.9
		c-4.6,1.7-7.6,2.1-12.6,2.1c-13.2,0-19.8-9.8-19.8-22.2c0-11.7,4.7-21.1,17.7-21.1c7.5,0,16.4,3.4,16.4,12.2H369.7z"/>
	<path class="st1" d="M382.1,64.2c5.9,0.2,6.8,2.3,6.8,7.9v29.8h8.9V59.6l-15.7,2.8V64.2z"/>
	<path class="st1" d="M412.1,101.9V51.8c0-5.5-0.9-7.8-6.8-8.1v-1.8l15.6-2.2v62.2H412.1z"/>
	<path class="st1" d="M435.2,101.9V51.8c0-5.5-0.9-7.8-6.8-8.1v-1.8l15.6-2.2v62.2H435.2z"/>
	<path class="st1" d="M477.6,101.9v-5.2c-3.2,3.9-6,6.2-11.5,6.2c-5.7,0-11.9-4-11.9-10.2c0-11.5,14.7-13.4,23.4-13.7v-4.5
		c0-4.2,0.4-11.8-5.6-11.8c-5.5,0-6.2,4.6-6.2,9.1h-10.6c1.5-9.3,7.8-12.1,16.7-12.1c11.2,0,14.6,4.7,14.6,15.3v27H477.6z
		 M477.6,82.2c-5.8,0.2-13.6,1.6-13.6,9c0,3.3,1.5,6.9,5.3,6.9c5.9,0,8.3-5.7,8.3-10.8V82.2z"/>
	<path class="st0" d="M167.7,128.9v-6h-5v6h-2V119c0-1.6-0.3-1.6-1.8-1.8v-0.4l3.9-0.4v5.7h5v-5.5h2v12.4H167.7z"/>
	<path class="st0" d="M175.8,129.1c-2.9,0-4-1.8-4-4.5c0-2.8,1-4.5,4-4.5c2.7,0,4,1.9,4,4.5C179.8,127.4,178.8,129.1,175.8,129.1
		 M175.8,120.8c-1.9,0-1.9,2.5-1.9,3.9c0,1.3,0.1,3.8,1.9,3.8c1.9,0,1.9-2.4,1.9-3.8C177.8,123.3,177.7,120.8,175.8,120.8"/>
	<path class="st0" d="M183.8,129.1c-0.8,0-1.6-0.1-2.4-0.3v-1.4c0.7,0.5,1.5,1,2.4,1c0.8,0,1.6-0.3,1.6-1.2c0-1.8-4-1.9-4-4.4
		c0-1.8,1.5-2.5,3.1-2.5c0.7,0,1.4,0.1,2.1,0.3v1.4c-0.7-0.5-1.3-0.9-2.2-0.9c-0.6,0-1.3,0.3-1.3,1c0,1.7,4,1.8,4,4.6
		C187.1,128.5,185.4,129.1,183.8,129.1"/>
	<path class="st0" d="M193.2,129.1c-1.1,0-1.8-0.4-2.3-1.3h0v4.9H189v-9.9c0-1.2-0.2-1.6-1.4-1.6v-0.4l3.3-0.6v1.5h0
		c0.5-0.8,1.4-1.5,2.4-1.5c2.5,0,3.2,2.2,3.2,4.3C196.5,126.7,195.9,129.1,193.2,129.1 M192.7,121.1c-1.6,0-1.8,2.1-1.8,3.3v0.8
		c0,1.2,0.3,2.9,1.8,2.9c1.7,0,1.8-2.4,1.8-3.6C194.4,123.2,194.3,121.1,192.7,121.1"/>
	<path class="st0" d="M198.8,128.9v-6.1c0-1.2-0.2-1.6-1.4-1.6v-0.4l3.3-0.6v8.7H198.8z M199.7,118.7c-0.6,0-1.1-0.5-1.1-1.2
		c0-0.6,0.5-1.1,1.2-1.1c0.6,0,1.2,0.5,1.2,1.1C200.9,118.2,200.3,118.7,199.7,118.7"/>
	<path class="st0" d="M205.7,121.1v5.3c0,1.2,0.1,1.9,1.5,1.9c0.2,0,0.5,0,0.7-0.1v0.7c-0.4,0.1-0.8,0.1-1.2,0.1
		c-1.8,0-2.8-0.3-2.8-2.4v-5.6h-1.4v-0.7h1.4v-1.4l1.8-1.6v3.1h2.4v0.7H205.7z"/>
	<path class="st0" d="M213.6,128.9v-1.1c-0.7,0.8-1.2,1.3-2.4,1.3c-1.2,0-2.5-0.8-2.5-2.1c0-2.4,3-2.8,4.8-2.8v-0.9
		c0-0.9,0.1-2.4-1.2-2.4c-1.1,0-1.3,1-1.3,1.9H209c0.3-1.9,1.6-2.5,3.4-2.5c2.3,0,3,1,3,3.2v5.6H213.6z M213.6,124.8
		c-1.2,0-2.8,0.3-2.8,1.9c0,0.7,0.3,1.4,1.1,1.4c1.2,0,1.7-1.2,1.7-2.2V124.8z"/>
	<path class="st0" d="M217.9,128.9v-10.4c0-1.1-0.2-1.6-1.4-1.7v-0.4l3.2-0.5v12.8H217.9z"/>
	<path class="st0" d="M232.7,129.1c-3,0-4.4-1.3-4.4-4.3V119c0-1.7-0.2-1.6-1.8-1.8v-0.4l3.9-0.4v7.6c0,2,0,4.3,2.6,4.3
		c2.7,0,2.8-1.7,2.8-3.9v-7.8h1.3v7.6C237.1,127.3,236.4,129.1,232.7,129.1"/>
	<path class="st0" d="M245.4,128.9v-4.8c0-1,0.1-2.7-1.2-2.7c-1.3,0-2.3,1.9-2.3,3v4.5h-1.8v-6.1c0-1.2-0.2-1.6-1.5-1.6v-0.4
		l3.3-0.6v2.3h0c0.5-1.2,1.7-2.3,3.1-2.3c1.6,0,2.2,1.1,2.2,2.6v6.1H245.4z"/>
	<path class="st0" d="M250.2,128.9v-6.1c0-1.2-0.2-1.6-1.4-1.6v-0.4l3.2-0.6v8.7H250.2z M251.1,118.7c-0.6,0-1.1-0.5-1.1-1.2
		c0-0.6,0.5-1.1,1.2-1.1c0.6,0,1.2,0.5,1.2,1.1C252.3,118.2,251.8,118.7,251.1,118.7"/>
	<path class="st0" d="M258.9,128.9h-1.3l-2.6-6.5c-0.5-1.1-0.6-1.5-1.9-1.7v-0.4h3.1l2.6,6.5l2.5-6.5h1L258.9,128.9z"/>
	<path class="st0" d="M264.8,123.7c0,2.1,0.9,4.4,3.3,4.4c0.6,0,1.2-0.1,1.7-0.3v0.8c-0.8,0.3-1.7,0.5-2.6,0.5c-3,0-4.5-1.9-4.5-4.8
		c0-2.6,1.1-4.2,3.9-4.2c2.4,0,3.4,1.3,3.4,3.5H264.8z M266.5,120.8c-1.2,0-1.8,1.1-1.8,2.1h3.4
		C268.2,121.9,267.8,120.8,266.5,120.8"/>
	<path class="st0" d="M276.1,121.8c-1.7,0-2.4,1.2-2.4,2.7v4.4h-1.8v-6.1c0-1.2-0.2-1.6-1.4-1.6v-0.4l3.3-0.6v2.4h0
		c0.3-1.1,0.9-2.4,2.3-2.4c0.3,0,0.7,0,1,0.1v1.7C276.7,121.9,276.4,121.8,276.1,121.8"/>
	<path class="st0" d="M280,129.1c-0.8,0-1.6-0.1-2.4-0.3v-1.4c0.7,0.5,1.5,1,2.4,1c0.8,0,1.6-0.3,1.6-1.2c0-1.8-4-1.9-4-4.4
		c0-1.8,1.5-2.5,3.1-2.5c0.7,0,1.4,0.1,2.1,0.3v1.4c-0.7-0.5-1.3-0.9-2.2-0.9c-0.6,0-1.3,0.3-1.3,1c0,1.7,4,1.8,4,4.6
		C283.3,128.5,281.6,129.1,280,129.1"/>
	<path class="st0" d="M285.3,128.9v-6.1c0-1.2-0.2-1.6-1.4-1.6v-0.4l3.3-0.6v8.7H285.3z M286.2,118.7c-0.6,0-1.1-0.5-1.1-1.2
		c0-0.6,0.5-1.1,1.2-1.1c0.6,0,1.2,0.5,1.2,1.1C287.4,118.2,286.8,118.7,286.2,118.7"/>
	<path class="st0" d="M292.2,121.1v5.3c0,1.2,0.1,1.9,1.5,1.9c0.2,0,0.5,0,0.7-0.1v0.7c-0.4,0.1-0.8,0.1-1.2,0.1
		c-1.8,0-2.8-0.3-2.8-2.4v-5.6h-1.4v-0.7h1.4v-1.4l1.8-1.6v3.1h2.4v0.7H292.2z"/>
	<path class="st0" d="M300.1,128.9v-1.1c-0.7,0.8-1.2,1.3-2.4,1.3c-1.2,0-2.5-0.8-2.5-2.1c0-2.4,3-2.8,4.8-2.8v-0.9
		c0-0.9,0.1-2.4-1.2-2.4c-1.1,0-1.3,1-1.3,1.9h-2.2c0.3-1.9,1.6-2.5,3.5-2.5c2.3,0,3,1,3,3.2v5.6H300.1z M300.1,124.8
		c-1.2,0-2.8,0.3-2.8,1.9c0,0.7,0.3,1.4,1.1,1.4c1.2,0,1.7-1.2,1.7-2.2V124.8z"/>
	<path class="st0" d="M308.8,121.8c-1.7,0-2.4,1.2-2.4,2.7v4.4h-1.8v-6.1c0-1.2-0.2-1.6-1.4-1.6v-0.4l3.3-0.6v2.4h0
		c0.3-1.1,0.9-2.4,2.3-2.4c0.3,0,0.7,0,1,0.1v1.7C309.4,121.9,309.1,121.8,308.8,121.8"/>
	<path class="st0" d="M311.4,128.9v-6.1c0-1.2-0.2-1.6-1.4-1.6v-0.4l3.2-0.6v8.7H311.4z M312.3,118.7c-0.6,0-1.1-0.5-1.1-1.2
		c0-0.6,0.5-1.1,1.2-1.1c0.6,0,1.2,0.5,1.2,1.1C313.5,118.2,313,118.7,312.3,118.7"/>
	<path class="st0" d="M319.3,129.1c-2.9,0-4-1.8-4-4.5c0-2.8,1-4.5,4-4.5c2.7,0,4,1.9,4,4.5C323.3,127.4,322.3,129.1,319.3,129.1
		 M319.3,120.8c-1.9,0-1.9,2.5-1.9,3.9c0,1.3,0.1,3.8,1.9,3.8c1.9,0,1.9-2.4,1.9-3.8C321.3,123.3,321.2,120.8,319.3,120.8"/>
	<path class="st0" d="M341.1,128.9v-11.4h0l-3.8,11.4h-1.4l-3.8-11.4h0v11.4h-1v-10.2c0-1.6-0.4-1.6-1.8-1.9v-0.3h4l3.6,10.6h0
		l3.6-10.6h2.2v12.4H341.1z"/>
	<path class="st0" d="M349.7,128.9v-1.2c-0.7,0.8-1.4,1.4-2.6,1.4c-1.3,0-2.2-0.9-2.2-2.2c0-2.4,3-2.7,4.8-2.7v-0.7
		c0-1.2,0-2.6-1.5-2.6c-1.1,0-1.5,0.6-1.5,1.6H345c0.1-1.8,1.6-2.3,3.2-2.3c2.1,0,2.9,0.9,2.9,3v5.7H349.7z M349.7,124.8
		c-1.2,0-3.2,0.3-3.2,1.9c0,0.8,0.5,1.5,1.4,1.5c1.2,0,1.9-1.3,1.9-2.4V124.8z"/>
	<path class="st0" d="M357.3,121.6c-1.7,0-2,1.6-2,2.9v4.4h-1.4v-6.7c0-1-0.6-1.2-1.4-1.3v-0.3l2.8-0.4v2.2h0c0.4-1.2,1-2.2,2.4-2.2
		c0.1,0,0.1,0,0.2,0v1.5C357.7,121.6,357.5,121.6,357.3,121.6"/>
	<path class="st0" d="M364.1,132.8v-5.2h0c-0.4,0.9-1.3,1.5-2.3,1.5c-2.5,0-3.3-2.3-3.3-4.5c0-2.2,0.8-4.5,3.4-4.5
		c0.8,0,1.8,0.3,2.2,1l1-1h0.4v12.6H364.1z M364.1,123.8c0-1.1-0.6-3-2-3c-1.7,0-2,2.5-2,3.8c0,1.3,0.2,3.7,2,3.7
		c1.6,0,2.1-2,2.1-3.3V123.8z"/>
	<path class="st0" d="M374,128.9v-2h0c-0.4,1.2-1.4,2.2-2.8,2.2c-2.2,0-2.5-1.6-2.5-3.5v-3.5c0-0.9-0.6-1.1-1.4-1.2v-0.3l2.8-0.4
		v5.7c0,1,0.2,2.3,1.5,2.3c1.3,0,2.4-2.4,2.4-3.5v-2.6c0-0.9-0.6-1.1-1.4-1.2v-0.3l2.8-0.4v8.7H374z"/>
	<path class="st0" d="M378.8,123.6v0.4c0,2.1,1.6,4.4,3.8,4.4c0.4,0,0.9-0.1,1.3-0.2v0.6c-0.6,0.2-1.6,0.3-2.3,0.3
		c-2.9,0-4.3-1.9-4.3-4.7c0-2.5,0.9-4.2,3.7-4.2c2,0,3.1,1.2,3.1,3.2v0.3H378.8z M382.5,122.8c0-1-0.6-2-1.7-2c-1.3,0-1.9,0.9-2,2.1
		h3.7V122.8z M382.1,117.4l-1.1,1.5h-0.8l0.6-2.1c0.2-0.5,0.3-0.8,0.9-0.8c0.4,0,0.7,0.2,0.7,0.6
		C382.5,116.9,382.3,117.2,382.1,117.4"/>
	<path class="st0" d="M387.6,129.1c-0.8,0-1.6-0.1-2.4-0.4v-1.2c0.8,0.4,1.5,0.8,2.4,0.8c1,0,1.9-0.4,1.9-1.6c0-1.9-4.3-1.8-4.3-4.3
		c0-1.8,1.4-2.4,3-2.4c0.7,0,1.4,0.1,2,0.3v1.1c-0.7-0.4-1.4-0.7-2.2-0.7c-0.8,0-1.5,0.3-1.5,1.2c0,1.8,4.3,1.5,4.3,4.4
		C390.9,128.4,389.3,129.1,387.6,129.1"/>
	<path class="st0" d="M403.1,128.9v-1.2h0c-0.5,0.9-1.3,1.4-2.3,1.4c-2.5,0-3.4-2.3-3.4-4.5c0-2.1,0.8-4.5,3.3-4.5
		c1,0,1.9,0.6,2.4,1.4h0v-3.3c0-1.1-0.2-1.5-1.4-1.5v-0.3l2.8-0.4v12.8H403.1z M403.1,124.2c0-1.3-0.4-3.4-2.1-3.4
		c-1.8,0-2.1,2.4-2.1,3.8c0,1.3,0.3,3.7,2,3.7c1.7,0,2.2-2,2.2-3.4V124.2z"/>
	<path class="st0" d="M408,123.6v0.4c0,2.1,1.6,4.4,3.8,4.4c0.4,0,0.9-0.1,1.3-0.2v0.6c-0.6,0.2-1.6,0.3-2.3,0.3
		c-2.9,0-4.3-1.9-4.3-4.7c0-2.5,0.9-4.2,3.7-4.2c2,0,3.1,1.2,3.1,3.2v0.3H408z M411.7,122.8c0-1-0.6-2-1.7-2c-1.3,0-1.9,0.9-2,2.1
		h3.7V122.8z"/>
	<path class="st0" d="M425,129.1h-1.1l-3.9-10.4c-0.5-1.3-0.6-1.6-2-1.9v-0.3h3l3.7,10.3l3.8-10.3h1.1L425,129.1z"/>
	<path class="st0" d="M434.7,128.9v-1.2c-0.7,0.8-1.4,1.4-2.6,1.4c-1.3,0-2.2-0.9-2.2-2.2c0-2.4,3-2.7,4.8-2.7v-0.7
		c0-1.2,0-2.6-1.5-2.6c-1.1,0-1.5,0.6-1.5,1.6H430c0.1-1.8,1.6-2.3,3.2-2.3c2.1,0,2.9,0.9,2.9,3v5.7H434.7z M434.7,124.8
		c-1.2,0-3.2,0.3-3.2,1.9c0,0.8,0.5,1.5,1.4,1.5c1.2,0,1.9-1.3,1.9-2.4V124.8z"/>
	<path class="st0" d="M438.9,128.9V118c0-1-0.6-1.2-1.4-1.2v-0.3l2.8-0.4v12.8H438.9z"/>
	<path class="st0" d="M448.3,128.9v-1.2h0c-0.5,0.9-1.3,1.4-2.3,1.4c-2.5,0-3.4-2.3-3.4-4.5c0-2.1,0.8-4.5,3.3-4.5
		c1,0,1.9,0.6,2.4,1.4h0v-3.3c0-1.1-0.2-1.5-1.4-1.5v-0.3l2.8-0.4v12.8H448.3z M448.3,124.2c0-1.3-0.4-3.4-2.1-3.4
		c-1.8,0-2.1,2.4-2.1,3.8c0,1.3,0.3,3.7,2,3.7c1.7,0,2.2-2,2.2-3.4V124.2z"/>
	<path class="st0" d="M453.1,123.6v0.4c0,2.1,1.6,4.4,3.8,4.4c0.4,0,0.9-0.1,1.3-0.2v0.6c-0.6,0.2-1.6,0.3-2.3,0.3
		c-2.9,0-4.3-1.9-4.3-4.7c0-2.5,0.9-4.2,3.7-4.2c2,0,3.1,1.2,3.1,3.2v0.3H453.1z M456.9,122.8c0-1-0.6-2-1.7-2c-1.3,0-1.9,0.9-2,2.1
		h3.7V122.8z"/>
	<path class="st0" d="M464.9,122.5c0-1-0.5-1.6-1.6-1.6c-1.5,0-1.9,1.6-1.9,2.9c0,2.3,1.2,4.6,3.8,4.6c0.3,0,0.7-0.1,1-0.1v0.5
		c-0.6,0.2-1.3,0.3-2,0.3c-3.1,0-4.4-1.8-4.4-4.7c0-2.4,1-4.2,3.6-4.2c1.4,0,3.1,0.7,3.1,2.3H464.9z"/>
	<path class="st0" d="M468.2,128.9v-6.8c0-0.9-0.6-1.1-1.4-1.2v-0.3l2.8-0.4v8.7H468.2z M468.8,118.4c-0.6,0-1-0.4-1-1
		c0-0.6,0.5-1,1-1c0.6,0,1,0.5,1,1C469.9,117.9,469.4,118.4,468.8,118.4"/>
	<path class="st0" d="M472.3,128.9V118c0-1-0.6-1.2-1.4-1.2v-0.3l2.8-0.4v12.8H472.3z"/>
	<path class="st0" d="M476.6,128.9V118c0-1-0.6-1.2-1.4-1.2v-0.3l2.8-0.4v12.8H476.6z"/>
	<path class="st0" d="M485,128.9v-1.2c-0.7,0.8-1.4,1.4-2.6,1.4c-1.3,0-2.2-0.9-2.2-2.2c0-2.4,3-2.7,4.8-2.7v-0.7
		c0-1.2,0-2.6-1.5-2.6c-1.1,0-1.5,0.6-1.5,1.6h-1.6c0.1-1.8,1.6-2.3,3.2-2.3c2.1,0,2.9,0.9,2.9,3v5.7H485z M485,124.8
		c-1.2,0-3.2,0.3-3.2,1.9c0,0.8,0.5,1.5,1.4,1.5c1.2,0,1.9-1.3,1.9-2.4V124.8z"/>
	<path class="st0" d="M393.5,52.6c-3.1,0-5.5-2.6-5.5-5.6c0-3.1,2.6-5.5,5.6-5.5c3,0,5.7,2.4,5.7,5.5
		C399.3,50.1,396.6,52.6,393.5,52.6"/>
</g>
</svg>
