<?xml version="1.0" encoding="UTF-8" standalone="no"?>
<svg
   xmlns:dc="http://purl.org/dc/elements/1.1/"
   xmlns:cc="http://creativecommons.org/ns#"
   xmlns:rdf="http://www.w3.org/1999/02/22-rdf-syntax-ns#"
   xmlns:svg="http://www.w3.org/2000/svg"
   xmlns="http://www.w3.org/2000/svg"
   viewBox="0 0 585.82666 170.08"
   height="170.08"
   width="585.82666"
   xml:space="preserve"
   id="svg2"
   version="1.1"><metadata
     id="metadata8"><rdf:RDF><cc:Work
         rdf:about=""><dc:format>image/svg+xml</dc:format><dc:type
           rdf:resource="http://purl.org/dc/dcmitype/StillImage" /></cc:Work></rdf:RDF></metadata><defs
     id="defs6"><clipPath
       id="clipPath22"
       clipPathUnits="userSpaceOnUse"><path
         id="path20"
         d="M 0,127.56 H 439.37 V 0 H 0 Z" /></clipPath></defs><g
     transform="matrix(1.3333333,0,0,-1.3333333,0,170.08)"
     id="g10"><g
       transform="translate(10.5605,71.0391)"
       id="g12"><path
         id="path14"
         style="fill:#f36018;fill-opacity:1;fill-rule:nonzero;stroke:none"
         d="M 0,0 74.652,-14.197 79.934,0.352 0.465,3.813 Z" /></g><g
       id="g16"><g
         clip-path="url(#clipPath22)"
         id="g18"><g
           transform="translate(23.5381,76.8008)"
           id="g24"><path
             id="path26"
             style="fill:#88b116;fill-opacity:1;fill-rule:nonzero;stroke:none"
             d="m 0,0 38.157,-1.677 8.225,36.531 c -0.378,0.364 -0.839,0.749 -1.312,1.139 l -0.304,0.252 C 23.844,30.983 7.189,17.53 0,0" /></g><g
           transform="translate(64.3779,75.0205)"
           id="g28"><path
             id="path30"
             style="fill:#5a9f23;fill-opacity:1;fill-rule:nonzero;stroke:none"
             d="M 0,0 21.022,-0.935 C 20.563,14.118 16.106,26.018 7.761,34.523 Z" /></g><g
           transform="translate(20.3481,66.6875)"
           id="g32"><path
             id="path34"
             style="fill:#145798;fill-opacity:1;fill-rule:nonzero;stroke:none"
             d="M 0,0 C -4.247,-22.903 6.35,-42.826 27.688,-52.172 L 37.83,-7.169 Z" /></g><g
           transform="translate(57.999,46.9482)"
           id="g36"><path
             id="path38"
             style="fill:#07464b;fill-opacity:1;fill-rule:nonzero;stroke:none"
             d="m 0,0 h 14.81 l 3.307,9.196 -15.32,2.918 z" /></g><g
           transform="translate(301.041,92.2764)"
           id="g40"><path
             id="path42"
             style="fill:#444141;fill-opacity:1;fill-rule:nonzero;stroke:none"
             d="m 0,0 h -31.877 v -4.727 h 13.096 v -38.332 h 5.621 V -4.727 H 0 Z" /></g><g
           transform="translate(303.4092,74.0684)"
           id="g44"><path
             id="path46"
             style="fill:#444141;fill-opacity:1;fill-rule:nonzero;stroke:none"
             d="M 0,0 H -0.19 L -0.447,6.069 H -5.366 C -5.173,3.196 -5.11,0.065 -5.11,-3.576 v -21.275 h 5.622 v 16.547 c 0,0.894 0.065,1.789 0.191,2.619 0.768,4.154 3.577,7.156 7.539,7.156 0.767,0 1.342,-0.064 1.917,-0.127 V 6.646 C 9.647,6.709 9.2,6.774 8.626,6.774 4.856,6.774 1.407,4.154 0,0" /></g><g
           transform="translate(335.1982,59.6299)"
           id="g48"><path
             id="path50"
             style="fill:#444141;fill-opacity:1;fill-rule:nonzero;stroke:none"
             d="m 0,0 c 0,-0.574 -0.065,-1.213 -0.257,-1.787 -0.893,-2.62 -3.514,-5.176 -7.601,-5.176 -2.811,0 -5.24,1.661 -5.24,5.367 0,6.005 6.963,7.091 13.098,6.963 z m 5.493,8.563 c 0,6.195 -2.299,12.649 -11.818,12.649 -3.897,0 -7.665,-1.087 -10.222,-2.685 l 1.277,-3.769 c 2.172,1.47 5.174,2.301 8.114,2.301 6.325,0.064 7.028,-4.6 7.028,-7.156 V 9.266 c -11.947,0.062 -18.592,-4.027 -18.592,-11.5 0,-4.473 3.195,-8.881 9.455,-8.881 4.409,0 7.795,2.173 9.455,4.6 h 0.194 l 0.51,-3.897 H 5.94 c -0.318,2.108 -0.447,4.728 -0.447,7.41 z" /></g><g
           transform="translate(369.5684,62.4414)"
           id="g52"><path
             id="path54"
             style="fill:#444141;fill-opacity:1;fill-rule:nonzero;stroke:none"
             d="m 0,0 c 0,-1.021 -0.128,-2.108 -0.447,-3.002 -1.151,-3.641 -4.282,-5.813 -7.794,-5.813 -6.005,0 -9.137,5.11 -9.137,11.116 0,7.219 3.834,11.756 9.199,11.756 4.155,0 6.838,-2.685 7.86,-6.006 C -0.063,7.284 0,6.452 0,5.559 Z M 0.702,13.034 H 0.576 c -1.407,2.619 -4.281,5.365 -9.647,5.365 -7.157,0 -13.991,-5.878 -13.991,-16.354 0,-8.625 5.493,-15.142 13.16,-15.142 4.791,0 8.176,2.3 9.839,5.176 h 0.126 v -3.387 c 0,-7.858 -4.215,-10.861 -9.965,-10.861 -3.833,0 -7.029,1.151 -9.072,2.492 l -1.406,-4.343 c 2.491,-1.662 6.58,-2.557 10.287,-2.557 3.896,0 8.239,0.959 11.307,3.706 2.937,2.748 4.408,7.028 4.408,14.183 V 9.266 c 0,3.704 0.064,6.26 0.255,8.431 H 0.895 Z" /></g><g
           transform="translate(392.2051,67.1689)"
           id="g56"><path
             id="path58"
             style="fill:#444141;fill-opacity:1;fill-rule:nonzero;stroke:none"
             d="m 0,0 c -4.025,1.598 -5.814,2.748 -5.814,5.303 0,2.301 1.789,4.218 5.11,4.218 2.876,0 5.109,-1.088 6.325,-1.79 l 1.342,4.025 c -1.661,1.086 -4.409,1.916 -7.539,1.916 -6.581,0 -10.669,-4.089 -10.669,-9.07 0,-3.643 2.62,-6.71 8.242,-8.753 4.088,-1.534 5.685,-2.939 5.685,-5.624 0,-2.618 -1.917,-4.599 -5.942,-4.599 -2.809,0 -5.75,1.149 -7.474,2.173 l -1.342,-4.217 c 2.173,-1.278 5.303,-2.172 8.688,-2.172 7.221,0 11.5,3.833 11.5,9.328 0,4.6 -2.81,7.283 -8.112,9.262" /></g><g
           transform="translate(422.8691,59.6299)"
           id="g60"><path
             id="path62"
             style="fill:#444141;fill-opacity:1;fill-rule:nonzero;stroke:none"
             d="m 0,0 c 0,-0.574 -0.065,-1.213 -0.257,-1.787 -0.893,-2.62 -3.514,-5.176 -7.601,-5.176 -2.812,0 -5.24,1.661 -5.24,5.367 0,6.005 6.963,7.091 13.098,6.963 z M 5.493,-3.002 V 8.563 c 0,6.195 -2.299,12.649 -11.818,12.649 -3.897,0 -7.665,-1.087 -10.223,-2.685 l 1.279,-3.769 c 2.171,1.47 5.174,2.301 8.113,2.301 6.325,0.064 7.027,-4.6 7.027,-7.156 V 9.266 c -11.946,0.062 -18.591,-4.027 -18.591,-11.5 0,-4.473 3.195,-8.881 9.455,-8.881 4.409,0 7.795,2.173 9.455,4.6 h 0.194 l 0.51,-3.897 H 5.94 c -0.319,2.108 -0.447,4.728 -0.447,7.41" /></g><g
           transform="translate(132.3286,68.1904)"
           id="g64"><path
             id="path66"
             style="fill:#918f90;fill-opacity:1;fill-rule:nonzero;stroke:none"
             d="m 0,0 h 10.51 v -14.835 c -1.348,-0.667 -4.005,-1.414 -9.14,-1.414 -11.963,0 -19.105,7.227 -19.105,19.329 0,11.742 7.764,19.329 19.779,19.329 3.82,0 6.854,-0.586 9.547,-1.844 l 0.338,-0.158 1.359,3.184 -0.31,0.149 c -2.049,0.987 -6.161,1.979 -10.731,1.979 -16.627,0 -24.07,-11.435 -24.07,-22.768 0,-6.864 2.325,-12.956 6.378,-16.714 4.237,-3.953 9.409,-5.794 16.277,-5.794 6.725,0 11.613,1.647 13.402,2.355 l 0.228,0.091 V 3.246 L 0,3.246 Z" /></g><g
           transform="translate(166.9814,81.6357)"
           id="g68"><path
             id="path70"
             style="fill:#918f90;fill-opacity:1;fill-rule:nonzero;stroke:none"
             d="m 0,0 c -3.821,0 -7.254,-2.356 -9.022,-6.097 l -0.116,5.384 h -3.698 l 0.024,-0.383 c 0.182,-2.733 0.27,-5.775 0.27,-9.297 v -22.109 h 3.95 v 17.512 c 0,1.162 0.085,2.11 0.263,2.915 0.892,5.089 4.084,8.377 8.127,8.377 0.588,0 1.053,0 1.502,-0.061 l 0.407,-0.056 v 3.632 L 1.405,-0.135 C 0.992,-0.068 0.503,0 0,0" /></g><g
           transform="translate(200.1992,57.0645)"
           id="g72"><path
             id="path74"
             style="fill:#918f90;fill-opacity:1;fill-rule:nonzero;stroke:none"
             d="M 0,0 V 23.857 H -3.951 V 4.145 c 0,-1.047 -0.208,-2.224 -0.573,-3.284 -1.276,-2.798 -4.459,-6.067 -9.237,-6.067 -5.512,0 -8.193,3.673 -8.193,11.227 v 17.836 h -3.952 V 5.438 c 0,-12.71 7.974,-14.084 11.405,-14.084 5.229,0 8.93,2.783 10.855,5.643 l 0.178,-4.93 h 3.769 l -0.032,0.39 C 0.085,-5.364 0,-2.968 0,0" /></g><g
           transform="translate(220.5693,51.7139)"
           id="g76"><path
             id="path78"
             style="fill:#918f90;fill-opacity:1;fill-rule:nonzero;stroke:none"
             d="m 0,0 c -4.873,0 -9.01,3.069 -10.292,7.632 -0.173,0.664 -0.257,1.438 -0.257,2.371 v 6.088 c 0,0.686 0.199,1.505 0.375,2.226 l 0.08,0.333 c 1.297,4.688 5.559,7.96 10.364,7.96 7.573,0 11.022,-6.694 11.022,-12.916 C 11.292,5.248 6.965,0 0,0 m 1.01,29.922 c -5.137,0 -9.196,-2.062 -11.796,-5.976 l -0.181,5.263 h -3.832 l 0.028,-0.385 c 0.188,-2.758 0.267,-5.715 0.267,-9.885 v -34.358 h 3.955 V 1.806 c 2.32,-3.265 6.183,-5.117 10.752,-5.117 7.487,0 15.04,5.298 15.04,17.134 0,9.479 -5.852,16.099 -14.233,16.099" /></g><g
           transform="translate(253.9961,51.7285)"
           id="g80"><path
             id="path82"
             style="fill:#918f90;fill-opacity:1;fill-rule:nonzero;stroke:none"
             d="m 0,0 h -0.068 c -6.477,0 -11.36,5.689 -11.36,13.234 0,6.652 3.596,13.364 11.629,13.364 8.435,0 11.496,-7.875 11.496,-13.169 C 11.697,5.773 6.668,0 0,0 m 0.269,29.906 c -7.539,0 -15.65,-5.278 -15.65,-16.867 0,-9.625 6.242,-16.348 15.178,-16.348 h 0.068 c 7.601,0 15.783,5.279 15.783,16.867 0,9.778 -6.18,16.348 -15.379,16.348" /></g></g></g></g></svg>